<svg width="292" height="27" viewBox="0 0 292 27" fill="none" xmlns="http://www.w3.org/2000/svg">
<path d="M0.35 19.7H0.5C0.64 19.7 0.77 19.64 0.89 19.52C1.01 19.4 1.11 19.26 1.19 19.1C1.29 18.94 1.36 18.77 1.4 18.59C1.44 18.39 1.46 18.21 1.46 18.05V2.09C1.46 1.95 1.44 1.79 1.4 1.61C1.36 1.43 1.29 1.26 1.19 1.1C1.11 0.919998 1 0.779998 0.86 0.679998C0.74 0.559999 0.6 0.499999 0.44 0.499999H0.29V0.199999H5.21C7.07 0.199999 8.52 0.609999 9.56 1.43C10.62 2.25 11.15 3.34 11.15 4.7C11.15 5.28 11.05 5.8 10.85 6.26C10.65 6.72 10.39 7.13 10.07 7.49C9.77 7.85 9.44 8.16 9.08 8.42C8.72 8.66 8.38 8.86 8.06 9.02C8.9 9.18 9.6 9.45 10.16 9.83C10.72 10.21 11.17 10.65 11.51 11.15C11.87 11.63 12.12 12.15 12.26 12.71C12.4 13.27 12.47 13.82 12.47 14.36C12.47 15.4 12.28 16.28 11.9 17C11.52 17.7 11.01 18.28 10.37 18.74C9.75 19.18 9.03 19.5 8.21 19.7C7.41 19.9 6.58 20 5.72 20H0.35V19.7ZM10.43 14.54C10.27 13 9.75 11.81 8.87 10.97C7.99 10.13 6.75 9.71 5.15 9.71H3.47V19.01H5.21C6.83 19.01 8.1 18.65 9.02 17.93C9.96 17.19 10.43 16.17 10.43 14.87V14.54ZM9.2 4.97C9.14 3.81 8.73 2.89 7.97 2.21C7.23 1.53 6.23 1.19 4.97 1.19H3.47V8.75H5.03C5.87 8.75 6.55 8.64 7.07 8.42C7.61 8.2 8.04 7.92 8.36 7.58C8.68 7.22 8.9 6.83 9.02 6.41C9.14 5.99 9.2 5.58 9.2 5.18V4.97ZM22.9477 9.59C22.7077 9.19 22.4577 8.94 22.1977 8.84C21.9377 8.74 21.6377 8.69 21.2977 8.69C21.0777 8.69 20.8377 8.74 20.5777 8.84C20.3377 8.94 20.0977 9.07 19.8577 9.23C19.6177 9.39 19.3777 9.57 19.1377 9.77C18.9177 9.95 18.7277 10.12 18.5677 10.28V18.08C18.5677 18.24 18.5877 18.41 18.6277 18.59C18.6677 18.77 18.7277 18.95 18.8077 19.13C18.9077 19.29 19.0077 19.43 19.1077 19.55C19.2277 19.65 19.3677 19.7 19.5277 19.7V20H15.6277V19.7C15.7677 19.7 15.8977 19.65 16.0177 19.55C16.1377 19.43 16.2377 19.29 16.3177 19.13C16.4177 18.95 16.4877 18.77 16.5277 18.59C16.5677 18.41 16.5877 18.24 16.5877 18.08V9.71C16.5877 9.43 16.4977 9.15 16.3177 8.87C16.1377 8.59 15.8777 8.41 15.5377 8.33V8.09L18.5677 7.19V8.99C18.7477 8.77 18.9377 8.56 19.1377 8.36C19.3377 8.14 19.5577 7.95 19.7977 7.79C20.0577 7.61 20.3377 7.47 20.6377 7.37C20.9377 7.25 21.2877 7.19 21.6877 7.19C21.9677 7.19 22.3277 7.25 22.7677 7.37C23.2077 7.49 23.5677 7.62 23.8477 7.76L22.9477 9.59ZM32.6352 20.21C31.6352 20.21 30.7352 20.05 29.9352 19.73C29.1352 19.39 28.4452 18.94 27.8652 18.38C27.3052 17.8 26.8652 17.12 26.5452 16.34C26.2452 15.56 26.0952 14.71 26.0952 13.79C26.0952 12.81 26.2652 11.92 26.6052 11.12C26.9452 10.3 27.4152 9.6 28.0152 9.02C28.6152 8.44 29.3252 7.99 30.1452 7.67C30.9652 7.35 31.8552 7.19 32.8152 7.19C33.7752 7.19 34.6552 7.35 35.4552 7.67C36.2552 7.97 36.9452 8.4 37.5252 8.96C38.1052 9.52 38.5552 10.19 38.8752 10.97C39.1952 11.73 39.3552 12.57 39.3552 13.49C39.3552 14.35 39.2052 15.19 38.9052 16.01C38.6252 16.81 38.1952 17.52 37.6152 18.14C37.0552 18.76 36.3552 19.26 35.5152 19.64C34.6952 20.02 33.7352 20.21 32.6352 20.21ZM32.4552 8.18C31.7352 8.22 31.0952 8.4 30.5352 8.72C29.9952 9.02 29.5352 9.42 29.1552 9.92C28.7952 10.4 28.5152 10.95 28.3152 11.57C28.1352 12.19 28.0452 12.82 28.0452 13.46C28.0452 14.2 28.1552 14.92 28.3752 15.62C28.6152 16.3 28.9452 16.91 29.3652 17.45C29.8052 17.99 30.3252 18.42 30.9252 18.74C31.5252 19.06 32.1952 19.22 32.9352 19.22C33.6752 19.22 34.3252 19.06 34.8852 18.74C35.4652 18.42 35.9452 18.01 36.3252 17.51C36.7052 16.99 36.9852 16.41 37.1652 15.77C37.3652 15.13 37.4652 14.49 37.4652 13.85C37.4652 13.19 37.3652 12.53 37.1652 11.87C36.9652 11.19 36.6552 10.58 36.2352 10.04C35.8152 9.48 35.2852 9.03 34.6452 8.69C34.0252 8.35 33.2952 8.18 32.4552 8.18ZM48.9383 20.21C47.9383 20.21 47.0383 20.05 46.2383 19.73C45.4383 19.39 44.7483 18.94 44.1683 18.38C43.6083 17.8 43.1683 17.12 42.8483 16.34C42.5483 15.56 42.3983 14.71 42.3983 13.79C42.3983 12.81 42.5683 11.92 42.9083 11.12C43.2483 10.3 43.7183 9.6 44.3183 9.02C44.9183 8.44 45.6283 7.99 46.4483 7.67C47.2683 7.35 48.1583 7.19 49.1183 7.19C50.0783 7.19 50.9583 7.35 51.7583 7.67C52.5583 7.97 53.2483 8.4 53.8283 8.96C54.4083 9.52 54.8583 10.19 55.1783 10.97C55.4983 11.73 55.6583 12.57 55.6583 13.49C55.6583 14.35 55.5083 15.19 55.2083 16.01C54.9283 16.81 54.4983 17.52 53.9183 18.14C53.3583 18.76 52.6583 19.26 51.8183 19.64C50.9983 20.02 50.0383 20.21 48.9383 20.21ZM48.7583 8.18C48.0383 8.22 47.3983 8.4 46.8383 8.72C46.2983 9.02 45.8383 9.42 45.4583 9.92C45.0983 10.4 44.8183 10.95 44.6183 11.57C44.4383 12.19 44.3483 12.82 44.3483 13.46C44.3483 14.2 44.4583 14.92 44.6783 15.62C44.9183 16.3 45.2483 16.91 45.6683 17.45C46.1083 17.99 46.6283 18.42 47.2283 18.74C47.8283 19.06 48.4983 19.22 49.2383 19.22C49.9783 19.22 50.6283 19.06 51.1883 18.74C51.7683 18.42 52.2483 18.01 52.6283 17.51C53.0083 16.99 53.2883 16.41 53.4683 15.77C53.6683 15.13 53.7683 14.49 53.7683 13.85C53.7683 13.19 53.6683 12.53 53.4683 11.87C53.2683 11.19 52.9583 10.58 52.5383 10.04C52.1183 9.48 51.5883 9.03 50.9483 8.69C50.3283 8.35 49.5983 8.18 48.7583 8.18ZM68.9314 20C68.5914 20 68.2714 19.93 67.9714 19.79C67.6914 19.63 67.4414 19.46 67.2214 19.28C66.9614 19.06 66.7214 18.82 66.5014 18.56L62.6314 13.58L62.0014 14.21V18.11C62.0014 18.25 62.0214 18.41 62.0614 18.59C62.1014 18.77 62.1614 18.95 62.2414 19.13C62.3414 19.29 62.4514 19.43 62.5714 19.55C62.6914 19.65 62.8314 19.7 62.9914 19.7V20H59.0914V19.7C59.2314 19.7 59.3614 19.65 59.4814 19.55C59.6014 19.43 59.7014 19.29 59.7814 19.13C59.8614 18.97 59.9214 18.8 59.9614 18.62C60.0014 18.44 60.0214 18.27 60.0214 18.11V2.84C60.0214 2.56 59.9314 2.28 59.7514 2C59.5714 1.72 59.3314 1.57 59.0314 1.55V1.25L62.0014 0.319999V12.83L66.8614 8.27C66.9614 8.17 67.0114 8.05 67.0114 7.91C67.0114 7.77 66.9414 7.7 66.8014 7.7V7.4H69.5014V7.7C69.3814 7.7 69.2514 7.73 69.1114 7.79C68.9914 7.85 68.8714 7.92 68.7514 8C68.6114 8.08 68.4714 8.18 68.3314 8.3L64.0714 12.26L68.5114 17.87C68.7714 18.23 69.0314 18.54 69.2914 18.8C69.5114 19.02 69.7414 19.23 69.9814 19.43C70.2414 19.61 70.4614 19.7 70.6414 19.7V20H68.9314ZM73.4602 20V19.7C73.6202 19.7 73.7602 19.64 73.8802 19.52C74.0002 19.4 74.1002 19.26 74.1802 19.1C74.2802 18.94 74.3502 18.77 74.3902 18.59C74.4302 18.39 74.4502 18.21 74.4502 18.05V2.69C74.4502 2.35 74.4002 2.03 74.3002 1.73C74.2002 1.43 73.9002 1.27 73.4002 1.25V0.949998L76.4302 0.0199997V18.05C76.4302 18.21 76.4502 18.39 76.4902 18.59C76.5302 18.77 76.5902 18.94 76.6702 19.1C76.7702 19.26 76.8702 19.4 76.9702 19.52C77.0902 19.64 77.2302 19.7 77.3902 19.7V20H73.4602ZM85.6836 24.29C85.4036 25.13 85.0436 25.7 84.6036 26C84.1836 26.3 83.7436 26.45 83.2836 26.45C82.9836 26.45 82.7136 26.41 82.4736 26.33C82.2536 26.25 82.0536 26.15 81.8736 26.03C81.7136 25.93 81.5836 25.83 81.4836 25.73C81.3836 25.63 81.3236 25.55 81.3036 25.49L82.2936 23.06C82.3936 23.42 82.4936 23.69 82.5936 23.87C82.6936 24.07 82.8336 24.25 83.0136 24.41C83.1936 24.57 83.4136 24.65 83.6736 24.65C84.1536 24.65 84.5336 24.3 84.8136 23.6L86.2836 19.91L81.4536 8.99C81.3536 8.75 81.1836 8.48 80.9436 8.18C80.7236 7.86 80.4136 7.7 80.0136 7.7V7.4H83.9736V7.7C83.8936 7.7 83.7936 7.77 83.6736 7.91C83.5536 8.05 83.4936 8.23 83.4936 8.45C83.4936 8.63 83.5336 8.79 83.6136 8.93L87.3036 17.42L90.8436 8.75C90.9036 8.61 90.9336 8.48 90.9336 8.36C90.9336 8.16 90.8636 8 90.7236 7.88C90.6036 7.76 90.4736 7.7 90.3336 7.7V7.4H93.2436V7.7C92.9236 7.7 92.6436 7.84 92.4036 8.12C92.1836 8.38 92.0036 8.68 91.8636 9.02L85.6836 24.29ZM107.753 18.05C107.753 18.21 107.773 18.39 107.813 18.59C107.853 18.77 107.913 18.94 107.993 19.1C108.093 19.26 108.193 19.4 108.293 19.52C108.413 19.64 108.553 19.7 108.713 19.7V20H104.843V19.7C104.983 19.7 105.113 19.64 105.233 19.52C105.353 19.4 105.453 19.26 105.533 19.1C105.633 18.94 105.703 18.77 105.743 18.59C105.783 18.39 105.803 18.21 105.803 18.05V12.47C105.803 11.75 105.703 11.12 105.503 10.58C105.303 10.04 105.033 9.59 104.693 9.23C104.353 8.87 103.963 8.61 103.523 8.45C103.103 8.27 102.673 8.18 102.233 8.18C101.793 8.18 101.353 8.27 100.913 8.45C100.493 8.63 100.113 8.87 99.7726 9.17C99.4526 9.45 99.1826 9.79 98.9626 10.19C98.7626 10.57 98.6626 10.97 98.6626 11.39V18.05C98.6626 18.21 98.6826 18.39 98.7226 18.59C98.7626 18.77 98.8226 18.94 98.9026 19.1C99.0026 19.26 99.1026 19.4 99.2026 19.52C99.3226 19.64 99.4626 19.7 99.6226 19.7V20H95.7226V19.7C95.8626 19.7 95.9926 19.64 96.1126 19.52C96.2326 19.4 96.3326 19.26 96.4126 19.1C96.5126 18.94 96.5826 18.77 96.6226 18.59C96.6626 18.39 96.6826 18.21 96.6826 18.05V9.77C96.6826 9.43 96.6326 9.11 96.5326 8.81C96.4326 8.49 96.1426 8.32 95.6626 8.3V8.03L98.6626 7.07V8.72C98.8026 8.56 98.9826 8.39 99.2026 8.21C99.4226 8.01 99.6826 7.83 99.9826 7.67C100.303 7.49 100.663 7.35 101.063 7.25C101.483 7.13 101.973 7.07 102.533 7.07C103.473 7.07 104.273 7.23 104.933 7.55C105.593 7.87 106.133 8.29 106.553 8.81C106.973 9.31 107.273 9.87 107.453 10.49C107.653 11.09 107.753 11.68 107.753 12.26V18.05ZM120.622 0.199999H124.882C127.102 0.199999 128.782 0.629999 129.922 1.49C131.082 2.33 131.662 3.53 131.662 5.09C131.662 5.93 131.462 6.68 131.062 7.34C130.662 8 130.132 8.56 129.472 9.02C128.832 9.46 128.102 9.8 127.282 10.04C126.482 10.28 125.682 10.4 124.882 10.4H123.742V18.05C123.742 18.21 123.762 18.39 123.802 18.59C123.842 18.77 123.902 18.94 123.982 19.1C124.082 19.26 124.182 19.4 124.282 19.52C124.402 19.64 124.542 19.7 124.702 19.7H124.852V20H120.622V19.7H120.772C120.912 19.7 121.042 19.64 121.162 19.52C121.282 19.4 121.382 19.26 121.462 19.1C121.542 18.94 121.602 18.77 121.642 18.59C121.682 18.39 121.702 18.21 121.702 18.05V2.06C121.702 1.78 121.622 1.46 121.462 1.1C121.302 0.739999 121.072 0.54 120.772 0.499999H120.622V0.199999ZM123.742 1.25V9.35H124.642C125.442 9.35 126.152 9.24 126.772 9.02C127.412 8.8 127.942 8.51 128.362 8.15C128.782 7.79 129.102 7.38 129.322 6.92C129.542 6.46 129.652 5.99 129.652 5.51C129.652 4.93 129.552 4.39 129.352 3.89C129.172 3.37 128.862 2.92 128.422 2.54C128.002 2.14 127.442 1.83 126.742 1.61C126.042 1.37 125.182 1.25 124.162 1.25H123.742ZM146.697 18.05C146.697 18.19 146.717 18.36 146.757 18.56C146.797 18.74 146.847 18.92 146.907 19.1C146.987 19.26 147.087 19.4 147.207 19.52C147.327 19.64 147.467 19.7 147.627 19.7V20H144.717V18.35C144.417 18.79 143.977 19.22 143.397 19.64C142.817 20.06 142.067 20.27 141.147 20.27C139.987 20.27 139.067 20.07 138.387 19.67C137.707 19.27 137.187 18.76 136.827 18.14C136.467 17.52 136.237 16.85 136.137 16.13C136.037 15.39 135.987 14.7 135.987 14.06V9.77C135.987 9.59 135.977 9.42 135.957 9.26C135.957 9.08 135.917 8.92 135.837 8.78C135.777 8.64 135.677 8.53 135.537 8.45C135.397 8.35 135.197 8.3 134.937 8.3V8.03L137.967 7.07V14.72C137.967 16.24 138.297 17.36 138.957 18.08C139.617 18.8 140.427 19.16 141.387 19.16C141.907 19.16 142.367 19.05 142.767 18.83C143.187 18.59 143.537 18.31 143.817 17.99C144.117 17.67 144.337 17.34 144.477 17C144.637 16.66 144.717 16.38 144.717 16.16V9.77C144.717 9.59 144.707 9.42 144.687 9.26C144.687 9.08 144.647 8.92 144.567 8.78C144.507 8.64 144.407 8.53 144.267 8.45C144.127 8.35 143.927 8.3 143.667 8.3V8.03L146.697 7.07V18.05ZM157.569 7.19C158.649 7.19 159.579 7.37 160.359 7.73C161.159 8.09 161.819 8.57 162.339 9.17C162.859 9.77 163.249 10.46 163.509 11.24C163.769 12 163.899 12.78 163.899 13.58C163.899 14.4 163.769 15.21 163.509 16.01C163.249 16.79 162.849 17.5 162.309 18.14C161.789 18.76 161.139 19.26 160.359 19.64C159.579 20.02 158.679 20.21 157.659 20.21C156.899 20.21 156.209 20.06 155.589 19.76C154.969 19.44 154.479 19.06 154.119 18.62V20H151.179V19.7C151.319 19.7 151.449 19.64 151.569 19.52C151.689 19.4 151.789 19.26 151.869 19.1C151.969 18.94 152.039 18.77 152.079 18.59C152.119 18.39 152.139 18.21 152.139 18.05V2.75C152.139 2.41 152.089 2.09 151.989 1.79C151.889 1.49 151.599 1.33 151.119 1.31V1.01L154.119 0.079999V8.66C154.579 8.2 155.119 7.84 155.739 7.58C156.379 7.32 156.989 7.19 157.569 7.19ZM157.869 19.19C158.589 19.15 159.209 18.98 159.729 18.68C160.249 18.36 160.679 17.96 161.019 17.48C161.379 17 161.639 16.46 161.799 15.86C161.979 15.24 162.069 14.61 162.069 13.97C162.069 13.25 161.969 12.55 161.769 11.87C161.569 11.19 161.269 10.58 160.869 10.04C160.489 9.5 160.009 9.07 159.429 8.75C158.849 8.41 158.189 8.24 157.449 8.24C157.029 8.24 156.619 8.34 156.219 8.54C155.819 8.72 155.459 8.97 155.139 9.29C154.839 9.59 154.589 9.96 154.389 10.4C154.209 10.82 154.119 11.27 154.119 11.75V15.47C154.119 16.05 154.229 16.57 154.449 17.03C154.669 17.49 154.959 17.88 155.319 18.2C155.679 18.52 156.079 18.77 156.519 18.95C156.979 19.11 157.429 19.19 157.869 19.19ZM167.279 20V19.7C167.439 19.7 167.579 19.64 167.699 19.52C167.819 19.4 167.919 19.26 167.999 19.1C168.099 18.94 168.169 18.77 168.209 18.59C168.249 18.39 168.269 18.21 168.269 18.05V2.69C168.269 2.35 168.219 2.03 168.119 1.73C168.019 1.43 167.719 1.27 167.219 1.25V0.949998L170.249 0.0199997V18.05C170.249 18.21 170.269 18.39 170.309 18.59C170.349 18.77 170.409 18.94 170.489 19.1C170.589 19.26 170.689 19.4 170.789 19.52C170.909 19.64 171.049 19.7 171.209 19.7V20H167.279ZM175.123 20V19.7C175.283 19.7 175.423 19.64 175.543 19.52C175.663 19.4 175.763 19.26 175.843 19.1C175.923 18.94 175.983 18.77 176.023 18.59C176.063 18.39 176.083 18.21 176.083 18.05V9.74C176.083 9.4 176.033 9.08 175.933 8.78C175.833 8.46 175.543 8.29 175.063 8.27V8L178.063 7.04V18.05C178.063 18.21 178.083 18.39 178.123 18.59C178.163 18.77 178.223 18.94 178.303 19.1C178.383 19.26 178.483 19.4 178.603 19.52C178.723 19.64 178.863 19.7 179.023 19.7V20H175.123ZM175.273 4.16C175.273 3.76 175.403 3.42 175.663 3.14C175.943 2.86 176.283 2.72 176.683 2.72C177.083 2.72 177.423 2.86 177.703 3.14C177.983 3.42 178.123 3.76 178.123 4.16C178.123 4.56 177.983 4.89 177.703 5.15C177.423 5.41 177.083 5.54 176.683 5.54C176.283 5.54 175.943 5.41 175.663 5.15C175.403 4.89 175.273 4.56 175.273 4.16ZM193.902 18.92C193.742 18.92 193.592 18.96 193.452 19.04C193.312 19.1 193.152 19.18 192.972 19.28C192.632 19.48 192.202 19.69 191.682 19.91C191.162 20.11 190.482 20.21 189.642 20.21C188.622 20.21 187.672 20.05 186.792 19.73C185.932 19.39 185.182 18.93 184.542 18.35C183.922 17.75 183.432 17.06 183.072 16.28C182.732 15.48 182.562 14.62 182.562 13.7C182.562 12.84 182.712 12.02 183.012 11.24C183.332 10.46 183.782 9.77 184.362 9.17C184.942 8.57 185.652 8.09 186.492 7.73C187.352 7.37 188.322 7.19 189.402 7.19C190.142 7.19 190.742 7.28 191.202 7.46C191.662 7.62 192.052 7.78 192.372 7.94C192.552 8.04 192.722 8.12 192.882 8.18C193.062 8.24 193.242 8.27 193.422 8.27V10.55H193.122C193.022 10.17 192.842 9.84 192.582 9.56C192.322 9.26 192.022 9.01 191.682 8.81C191.342 8.61 190.972 8.46 190.572 8.36C190.172 8.26 189.782 8.21 189.402 8.21C188.582 8.21 187.862 8.36 187.242 8.66C186.622 8.94 186.112 9.32 185.712 9.8C185.312 10.26 185.012 10.79 184.812 11.39C184.612 11.99 184.512 12.61 184.512 13.25C184.512 13.99 184.632 14.72 184.872 15.44C185.112 16.14 185.452 16.77 185.892 17.33C186.352 17.89 186.902 18.34 187.542 18.68C188.182 19.02 188.902 19.19 189.702 19.19C190.262 19.19 190.772 19.11 191.232 18.95C191.712 18.79 192.112 18.58 192.432 18.32C192.772 18.06 193.042 17.78 193.242 17.48C193.442 17.16 193.562 16.86 193.602 16.58H193.902V18.92ZM204.891 19.7H205.041C205.201 19.7 205.341 19.65 205.461 19.55C205.581 19.43 205.681 19.29 205.761 19.13C205.861 18.97 205.931 18.8 205.971 18.62C206.031 18.44 206.061 18.27 206.061 18.11V2.06C206.061 1.92 206.031 1.76 205.971 1.58C205.931 1.4 205.861 1.23 205.761 1.07C205.681 0.909998 205.581 0.779998 205.461 0.679998C205.341 0.559999 205.201 0.499999 205.041 0.499999H204.891V0.199999H209.211V0.499999H209.061C208.901 0.499999 208.761 0.559999 208.641 0.679998C208.521 0.779998 208.421 0.909998 208.341 1.07C208.261 1.23 208.191 1.4 208.131 1.58C208.091 1.76 208.071 1.92 208.071 2.06V18.89H214.641C215.021 18.89 215.351 18.8 215.631 18.62C215.911 18.44 216.141 18.22 216.321 17.96C216.521 17.68 216.661 17.39 216.741 17.09C216.841 16.77 216.891 16.48 216.891 16.22H217.191V20H204.891V19.7ZM219.857 20V19.7C220.017 19.7 220.157 19.64 220.277 19.52C220.397 19.4 220.497 19.26 220.577 19.1C220.657 18.94 220.717 18.77 220.757 18.59C220.797 18.39 220.817 18.21 220.817 18.05V9.74C220.817 9.4 220.767 9.08 220.667 8.78C220.567 8.46 220.277 8.29 219.797 8.27V8L222.797 7.04V18.05C222.797 18.21 222.817 18.39 222.857 18.59C222.897 18.77 222.957 18.94 223.037 19.1C223.117 19.26 223.217 19.4 223.337 19.52C223.457 19.64 223.597 19.7 223.757 19.7V20H219.857ZM220.007 4.16C220.007 3.76 220.137 3.42 220.397 3.14C220.677 2.86 221.017 2.72 221.417 2.72C221.817 2.72 222.157 2.86 222.437 3.14C222.717 3.42 222.857 3.76 222.857 4.16C222.857 4.56 222.717 4.89 222.437 5.15C222.157 5.41 221.817 5.54 221.417 5.54C221.017 5.54 220.677 5.41 220.397 5.15C220.137 4.89 220.007 4.56 220.007 4.16ZM233.986 7.19C235.066 7.19 235.996 7.37 236.776 7.73C237.576 8.09 238.236 8.57 238.756 9.17C239.276 9.77 239.666 10.46 239.926 11.24C240.186 12 240.316 12.78 240.316 13.58C240.316 14.4 240.186 15.21 239.926 16.01C239.666 16.79 239.266 17.5 238.726 18.14C238.206 18.76 237.556 19.26 236.776 19.64C235.996 20.02 235.096 20.21 234.076 20.21C233.316 20.21 232.626 20.06 232.006 19.76C231.386 19.44 230.896 19.06 230.536 18.62V20H227.596V19.7C227.736 19.7 227.866 19.64 227.986 19.52C228.106 19.4 228.206 19.26 228.286 19.1C228.386 18.94 228.456 18.77 228.496 18.59C228.536 18.39 228.556 18.21 228.556 18.05V2.75C228.556 2.41 228.506 2.09 228.406 1.79C228.306 1.49 228.016 1.33 227.536 1.31V1.01L230.536 0.079999V8.66C230.996 8.2 231.536 7.84 232.156 7.58C232.796 7.32 233.406 7.19 233.986 7.19ZM234.286 19.19C235.006 19.15 235.626 18.98 236.146 18.68C236.666 18.36 237.096 17.96 237.436 17.48C237.796 17 238.056 16.46 238.216 15.86C238.396 15.24 238.486 14.61 238.486 13.97C238.486 13.25 238.386 12.55 238.186 11.87C237.986 11.19 237.686 10.58 237.286 10.04C236.906 9.5 236.426 9.07 235.846 8.75C235.266 8.41 234.606 8.24 233.866 8.24C233.446 8.24 233.036 8.34 232.636 8.54C232.236 8.72 231.876 8.97 231.556 9.29C231.256 9.59 231.006 9.96 230.806 10.4C230.626 10.82 230.536 11.27 230.536 11.75V15.47C230.536 16.05 230.646 16.57 230.866 17.03C231.086 17.49 231.376 17.88 231.736 18.2C232.096 18.52 232.496 18.77 232.936 18.95C233.396 19.11 233.846 19.19 234.286 19.19ZM250.896 9.59C250.656 9.19 250.406 8.94 250.146 8.84C249.886 8.74 249.586 8.69 249.246 8.69C249.026 8.69 248.786 8.74 248.526 8.84C248.286 8.94 248.046 9.07 247.806 9.23C247.566 9.39 247.326 9.57 247.086 9.77C246.866 9.95 246.676 10.12 246.516 10.28V18.08C246.516 18.24 246.536 18.41 246.576 18.59C246.616 18.77 246.676 18.95 246.756 19.13C246.856 19.29 246.956 19.43 247.056 19.55C247.176 19.65 247.316 19.7 247.476 19.7V20H243.576V19.7C243.716 19.7 243.846 19.65 243.966 19.55C244.086 19.43 244.186 19.29 244.266 19.13C244.366 18.95 244.436 18.77 244.476 18.59C244.516 18.41 244.536 18.24 244.536 18.08V9.71C244.536 9.43 244.446 9.15 244.266 8.87C244.086 8.59 243.826 8.41 243.486 8.33V8.09L246.516 7.19V8.99C246.696 8.77 246.886 8.56 247.086 8.36C247.286 8.14 247.506 7.95 247.746 7.79C248.006 7.61 248.286 7.47 248.586 7.37C248.886 7.25 249.236 7.19 249.636 7.19C249.916 7.19 250.276 7.25 250.716 7.37C251.156 7.49 251.516 7.62 251.796 7.76L250.896 9.59ZM262.204 20V18.47L262.054 18.62C261.554 19.12 260.974 19.51 260.314 19.79C259.674 20.07 258.894 20.21 257.974 20.21C257.274 20.21 256.674 20.13 256.174 19.97C255.674 19.81 255.264 19.59 254.944 19.31C254.624 19.01 254.384 18.67 254.224 18.29C254.084 17.91 254.014 17.51 254.014 17.09C254.014 16.41 254.194 15.81 254.554 15.29C254.934 14.77 255.474 14.31 256.174 13.91C256.874 13.51 257.724 13.15 258.724 12.83C259.744 12.49 260.904 12.16 262.204 11.84C262.164 11.06 262.004 10.43 261.724 9.95C261.444 9.47 261.114 9.1 260.734 8.84C260.354 8.56 259.954 8.38 259.534 8.3C259.114 8.2 258.754 8.15 258.454 8.15C257.934 8.15 257.474 8.23 257.074 8.39C256.694 8.55 256.354 8.76 256.054 9.02C255.774 9.26 255.534 9.53 255.334 9.83C255.134 10.11 254.974 10.38 254.854 10.64H254.584V8.45C254.744 8.43 254.894 8.38 255.034 8.3C255.174 8.22 255.344 8.14 255.544 8.06C255.844 7.94 256.254 7.77 256.774 7.55C257.294 7.31 258.024 7.19 258.964 7.19C260.064 7.19 260.954 7.33 261.634 7.61C262.314 7.89 262.834 8.26 263.194 8.72C263.574 9.18 263.824 9.71 263.944 10.31C264.064 10.89 264.124 11.49 264.124 12.11V18.05C264.124 18.45 264.214 18.83 264.394 19.19C264.574 19.53 264.814 19.7 265.114 19.7V20H262.204ZM262.204 17.15V12.86L261.904 12.92C261.424 13.04 260.834 13.2 260.134 13.4C259.454 13.6 258.804 13.86 258.184 14.18C257.564 14.5 257.034 14.88 256.594 15.32C256.154 15.76 255.934 16.27 255.934 16.85C255.934 17.49 256.194 18.02 256.714 18.44C257.234 18.86 257.914 19.07 258.754 19.07C259.414 19.07 259.994 18.93 260.494 18.65C260.994 18.35 261.454 17.97 261.874 17.51L262.204 17.15ZM275.915 9.59C275.675 9.19 275.425 8.94 275.165 8.84C274.905 8.74 274.605 8.69 274.265 8.69C274.045 8.69 273.805 8.74 273.545 8.84C273.305 8.94 273.065 9.07 272.825 9.23C272.585 9.39 272.345 9.57 272.105 9.77C271.885 9.95 271.695 10.12 271.535 10.28V18.08C271.535 18.24 271.555 18.41 271.595 18.59C271.635 18.77 271.695 18.95 271.775 19.13C271.875 19.29 271.975 19.43 272.075 19.55C272.195 19.65 272.335 19.7 272.495 19.7V20H268.595V19.7C268.735 19.7 268.865 19.65 268.985 19.55C269.105 19.43 269.205 19.29 269.285 19.13C269.385 18.95 269.455 18.77 269.495 18.59C269.535 18.41 269.555 18.24 269.555 18.08V9.71C269.555 9.43 269.465 9.15 269.285 8.87C269.105 8.59 268.845 8.41 268.505 8.33V8.09L271.535 7.19V8.99C271.715 8.77 271.905 8.56 272.105 8.36C272.305 8.14 272.525 7.95 272.765 7.79C273.025 7.61 273.305 7.47 273.605 7.37C273.905 7.25 274.255 7.19 274.655 7.19C274.935 7.19 275.295 7.25 275.735 7.37C276.175 7.49 276.535 7.62 276.815 7.76L275.915 9.59ZM284.102 24.29C283.822 25.13 283.462 25.7 283.022 26C282.602 26.3 282.162 26.45 281.702 26.45C281.402 26.45 281.132 26.41 280.892 26.33C280.672 26.25 280.472 26.15 280.292 26.03C280.132 25.93 280.002 25.83 279.902 25.73C279.802 25.63 279.742 25.55 279.722 25.49L280.712 23.06C280.812 23.42 280.912 23.69 281.012 23.87C281.112 24.07 281.252 24.25 281.432 24.41C281.612 24.57 281.832 24.65 282.092 24.65C282.572 24.65 282.952 24.3 283.232 23.6L284.702 19.91L279.872 8.99C279.772 8.75 279.602 8.48 279.362 8.18C279.142 7.86 278.832 7.7 278.432 7.7V7.4H282.392V7.7C282.312 7.7 282.212 7.77 282.092 7.91C281.972 8.05 281.912 8.23 281.912 8.45C281.912 8.63 281.952 8.79 282.032 8.93L285.722 17.42L289.262 8.75C289.322 8.61 289.352 8.48 289.352 8.36C289.352 8.16 289.282 8 289.142 7.88C289.022 7.76 288.892 7.7 288.752 7.7V7.4H291.662V7.7C291.342 7.7 291.062 7.84 290.822 8.12C290.602 8.38 290.422 8.68 290.282 9.02L284.102 24.29Z" fill="white"/>
</svg>
